<svg width="25" height="25" viewBox="0 0 25 25" fill="none" xmlns="http://www.w3.org/2000/svg">
<mask id="mask0_34_291" style="mask-type:alpha" maskUnits="userSpaceOnUse" x="0" y="0" width="25" height="25">
<rect x="0.816406" y="0.909668" width="24" height="24" fill="#D9D9D9"/>
</mask>
<g mask="url(#mask0_34_291)">
<path d="M11.8164 17.9097H13.8164V11.9097H11.8164V17.9097ZM12.8164 9.90967C13.0997 9.90967 13.3372 9.81383 13.5289 9.62217C13.7206 9.4305 13.8164 9.193 13.8164 8.90967C13.8164 8.62633 13.7206 8.38883 13.5289 8.19717C13.3372 8.0055 13.0997 7.90967 12.8164 7.90967C12.5331 7.90967 12.2956 8.0055 12.1039 8.19717C11.9122 8.38883 11.8164 8.62633 11.8164 8.90967C11.8164 9.193 11.9122 9.4305 12.1039 9.62217C12.2956 9.81383 12.5331 9.90967 12.8164 9.90967ZM12.8164 22.9097C11.4331 22.9097 10.1331 22.6472 8.91641 22.1222C7.69974 21.5972 6.64141 20.8847 5.74141 19.9847C4.84141 19.0847 4.12891 18.0263 3.60391 16.8097C3.07891 15.593 2.81641 14.293 2.81641 12.9097C2.81641 11.5263 3.07891 10.2263 3.60391 9.00967C4.12891 7.793 4.84141 6.73467 5.74141 5.83467C6.64141 4.93467 7.69974 4.22217 8.91641 3.69717C10.1331 3.17217 11.4331 2.90967 12.8164 2.90967C14.1997 2.90967 15.4997 3.17217 16.7164 3.69717C17.9331 4.22217 18.9914 4.93467 19.8914 5.83467C20.7914 6.73467 21.5039 7.793 22.0289 9.00967C22.5539 10.2263 22.8164 11.5263 22.8164 12.9097C22.8164 14.293 22.5539 15.593 22.0289 16.8097C21.5039 18.0263 20.7914 19.0847 19.8914 19.9847C18.9914 20.8847 17.9331 21.5972 16.7164 22.1222C15.4997 22.6472 14.1997 22.9097 12.8164 22.9097ZM12.8164 20.9097C15.0497 20.9097 16.9414 20.1347 18.4914 18.5847C20.0414 17.0347 20.8164 15.143 20.8164 12.9097C20.8164 10.6763 20.0414 8.78467 18.4914 7.23467C16.9414 5.68467 15.0497 4.90967 12.8164 4.90967C10.5831 4.90967 8.69141 5.68467 7.14141 7.23467C5.59141 8.78467 4.81641 10.6763 4.81641 12.9097C4.81641 15.143 5.59141 17.0347 7.14141 18.5847C8.69141 20.1347 10.5831 20.9097 12.8164 20.9097Z" fill="#999999"/>
</g>
</svg>
