<svg width="25" height="25" viewBox="0 0 25 25" fill="none" xmlns="http://www.w3.org/2000/svg">
<mask id="mask0_30_135" style="mask-type:alpha" maskUnits="userSpaceOnUse" x="0" y="0" width="25" height="25">
<rect x="0.0102539" y="0.850342" width="24" height="24" fill="#D9D9D9"/>
</mask>
<g mask="url(#mask0_30_135)">
<path d="M11.9603 18.8503C12.3103 18.8503 12.6061 18.7295 12.8478 18.4878C13.0894 18.2462 13.2103 17.9503 13.2103 17.6003C13.2103 17.2503 13.0894 16.9545 12.8478 16.7128C12.6061 16.4712 12.3103 16.3503 11.9603 16.3503C11.6103 16.3503 11.3144 16.4712 11.0728 16.7128C10.8311 16.9545 10.7103 17.2503 10.7103 17.6003C10.7103 17.9503 10.8311 18.2462 11.0728 18.4878C11.3144 18.7295 11.6103 18.8503 11.9603 18.8503ZM11.0603 15.0003H12.9103C12.9103 14.4503 12.9728 14.017 13.0978 13.7003C13.2228 13.3837 13.5769 12.9503 14.1603 12.4003C14.5936 11.967 14.9353 11.5545 15.1853 11.1628C15.4353 10.7712 15.5603 10.3003 15.5603 9.75034C15.5603 8.81701 15.2186 8.10034 14.5353 7.60034C13.8519 7.10034 13.0436 6.85034 12.1103 6.85034C11.1603 6.85034 10.3894 7.10034 9.79775 7.60034C9.20609 8.10034 8.79359 8.70034 8.56025 9.40034L10.2103 10.0503C10.2936 9.75034 10.4811 9.42534 10.7728 9.07534C11.0644 8.72534 11.5103 8.55034 12.1103 8.55034C12.6436 8.55034 13.0436 8.69618 13.3103 8.98784C13.5769 9.27951 13.7103 9.60034 13.7103 9.95034C13.7103 10.2837 13.6103 10.5962 13.4103 10.8878C13.2103 11.1795 12.9603 11.4503 12.6603 11.7003C11.9269 12.3503 11.4769 12.842 11.3103 13.1753C11.1436 13.5087 11.0603 14.117 11.0603 15.0003ZM12.0103 22.8503C10.6269 22.8503 9.32692 22.5878 8.11025 22.0628C6.89359 21.5378 5.83525 20.8253 4.93525 19.9253C4.03525 19.0253 3.32275 17.967 2.79775 16.7503C2.27275 15.5337 2.01025 14.2337 2.01025 12.8503C2.01025 11.467 2.27275 10.167 2.79775 8.95034C3.32275 7.73368 4.03525 6.67534 4.93525 5.77534C5.83525 4.87534 6.89359 4.16284 8.11025 3.63784C9.32692 3.11284 10.6269 2.85034 12.0103 2.85034C13.3936 2.85034 14.6936 3.11284 15.9103 3.63784C17.1269 4.16284 18.1853 4.87534 19.0853 5.77534C19.9853 6.67534 20.6978 7.73368 21.2228 8.95034C21.7478 10.167 22.0103 11.467 22.0103 12.8503C22.0103 14.2337 21.7478 15.5337 21.2228 16.7503C20.6978 17.967 19.9853 19.0253 19.0853 19.9253C18.1853 20.8253 17.1269 21.5378 15.9103 22.0628C14.6936 22.5878 13.3936 22.8503 12.0103 22.8503ZM12.0103 20.8503C14.2436 20.8503 16.1353 20.0753 17.6853 18.5253C19.2353 16.9753 20.0103 15.0837 20.0103 12.8503C20.0103 10.617 19.2353 8.72534 17.6853 7.17534C16.1353 5.62534 14.2436 4.85034 12.0103 4.85034C9.77692 4.85034 7.88525 5.62534 6.33525 7.17534C4.78525 8.72534 4.01025 10.617 4.01025 12.8503C4.01025 15.0837 4.78525 16.9753 6.33525 18.5253C7.88525 20.0753 9.77692 20.8503 12.0103 20.8503Z" fill="#999999"/>
</g>
</svg>
