<svg width="14" height="18" viewBox="0 0 14 18" fill="none" xmlns="http://www.w3.org/2000/svg">
<path d="M1.61537 18.0001C1.15512 18.0001 0.770833 17.8459 0.4625 17.5376C0.154167 17.2292 0 16.845 0 16.3847V8.61546C0 8.15521 0.154167 7.77092 0.4625 7.46258C0.770833 7.15425 1.15512 7.00008 1.61537 7.00008H3.73077V8.00008H1.61537C1.46154 8.00008 1.32052 8.06418 1.1923 8.19238C1.0641 8.3206 1 8.46162 1 8.61546V16.3847C1 16.5385 1.0641 16.6796 1.1923 16.8078C1.32052 16.936 1.46154 17.0001 1.61537 17.0001H12.3846C12.5385 17.0001 12.6795 16.936 12.8077 16.8078C12.9359 16.6796 13 16.5385 13 16.3847V8.61546C13 8.46162 12.9359 8.3206 12.8077 8.19238C12.6795 8.06418 12.5385 8.00008 12.3846 8.00008H10.2692V7.00008H12.3846C12.8449 7.00008 13.2292 7.15425 13.5375 7.46258C13.8458 7.77092 14 8.15521 14 8.61546V16.3847C14 16.845 13.8458 17.2292 13.5375 17.5376C13.2292 17.8459 12.8449 18.0001 12.3846 18.0001H1.61537ZM6.5 13.5001V2.61356L4.4 4.71353L3.6923 4.00008L7 0.692383L10.3077 4.00008L9.6 4.71353L7.5 2.61356V13.5001H6.5Z" fill="#1C1B1F"/>
</svg>
