<?xml version="1.0" encoding="utf-8"?>
<!-- Generator: Adobe Illustrator 25.2.3, SVG Export Plug-In . SVG Version: 6.00 Build 0)  -->
<svg version="1.1" id="Layer_1" xmlns="http://www.w3.org/2000/svg" xmlns:xlink="http://www.w3.org/1999/xlink" x="0px" y="0px"
	 viewBox="0 0 512 512" style="enable-background:new 0 0 512 512;" xml:space="preserve">
<style type="text/css">
	.st0{fill:#999999;}
</style>
<path class="st0" d="M283.6,256L464.5,34.8c7.5-9.1,6.1-22.5-3-30c-9.1-7.4-22.5-6.1-30,3L256,222.3L80.5,7.8
	c-7.5-9.2-20.9-10.5-30-3c-9.1,7.5-10.5,20.9-3,30l181,221.2L47.5,477.2c-7.5,9.1-6.1,22.5,3,30c9.1,7.4,22.5,6.1,30-3L256,289.7
	l175.5,214.5c7.5,9.2,20.9,10.4,30,3c9.1-7.5,10.5-20.9,3-30L283.6,256z"/>
</svg>
