<?xml version="1.0" encoding="utf-8"?>
<!-- Generator: Adobe Illustrator 16.0.0, SVG Export Plug-In . SVG Version: 6.00 Build 0)  -->
<!DOCTYPE svg PUBLIC "-//W3C//DTD SVG 1.1//EN" "http://www.w3.org/Graphics/SVG/1.1/DTD/svg11.dtd">
<svg version="1.1" xmlns="http://www.w3.org/2000/svg" xmlns:xlink="http://www.w3.org/1999/xlink" x="0px" y="0px" width="600px"
	 height="600px" viewBox="0 0 600 600" enable-background="new 0 0 600 600" xml:space="preserve">
<g id="Layer_2" display="none">
	<g display="inline">
		<path fill="#999899" d="M299.998,31.276C151.824,31.276,31.276,151.823,31.276,300c0,148.173,120.548,268.721,268.722,268.721
			c148.176,0,268.723-120.548,268.723-268.721C568.721,151.823,448.174,31.276,299.998,31.276L299.998,31.276z M299.998,599.5
			C134.853,599.5,0.5,465.143,0.5,300C0.5,134.854,134.853,0.5,299.998,0.5C465.145,0.5,599.5,134.854,599.5,300
			C599.5,465.143,465.145,599.5,299.998,599.5L299.998,599.5z"/>
		<path fill="#999899" d="M247.015,451.357c-3.97,0-7.803-1.539-10.68-4.315l-101.592-97.986c-6.118-5.898-6.294-15.642-0.396-21.76
			c5.9-6.118,15.644-6.294,21.761-0.393l89.387,86.214l173.581-218.878c5.281-6.665,14.964-7.78,21.619-2.5
			c6.66,5.282,7.776,14.962,2.496,21.623L259.076,445.528c-2.696,3.398-6.706,5.506-11.035,5.795
			C247.7,451.345,247.356,451.357,247.015,451.357L247.015,451.357z"/>
	</g>
	<path display="inline" fill="#999899" d="M244.502,464.029c-5.331,0-10.476-2.061-14.338-5.785L123.07,354.943
		c-8.211-7.915-8.448-20.994-0.529-29.201c7.921-8.216,20.996-8.45,29.207-0.529l90.714,87.492l179.946-226.91
		c7.089-8.94,20.08-10.439,29.018-3.352c8.938,7.09,10.437,20.082,3.35,29.021L260.688,456.211c-3.62,4.564-9,7.387-14.813,7.771
		C245.418,464.017,244.96,464.029,244.502,464.029L244.502,464.029z"/>
</g>
<g id="Layer_1">
	<g>
		<path fill="#542372" d="M599.5,299.998C599.5,465.41,465.408,599.5,300,599.5S0.5,465.41,0.5,299.998
			C0.5,134.59,134.592,0.5,300,0.5S599.5,134.59,599.5,299.998L599.5,299.998z"/>
		<path fill="#FFFFFF" d="M244.146,463.988c-5.331,0-10.476-2.061-14.338-5.785L122.714,354.902
			c-8.211-7.915-8.448-20.994-0.529-29.201c7.921-8.216,20.996-8.45,29.207-0.529l90.714,87.492l179.946-226.91
			c7.089-8.94,20.08-10.439,29.018-3.352c8.938,7.09,10.437,20.082,3.35,29.021L260.333,456.17c-3.62,4.564-9,7.387-14.813,7.771
			C245.063,463.976,244.604,463.988,244.146,463.988L244.146,463.988z"/>
	</g>
	<g>
		<path fill="#542372" d="M599.5,299.998C599.5,465.41,465.408,599.5,300,599.5S0.5,465.41,0.5,299.998
			C0.5,134.59,134.592,0.5,300,0.5S599.5,134.59,599.5,299.998L599.5,299.998z"/>
		<path fill="#FFFFFF" d="M244.146,463.988c-5.331,0-10.476-2.061-14.338-5.785L122.714,354.902
			c-8.211-7.915-8.448-20.994-0.529-29.201c7.921-8.216,20.996-8.45,29.207-0.529l90.714,87.492l179.946-226.91
			c7.089-8.94,20.08-10.439,29.018-3.352c8.938,7.09,10.437,20.082,3.35,29.021L260.333,456.17c-3.62,4.564-9,7.387-14.813,7.771
			C245.063,463.976,244.604,463.988,244.146,463.988L244.146,463.988z"/>
	</g>
</g>
</svg>
