<?xml version="1.0" encoding="utf-8"?>
<!-- Generator: Adobe Illustrator 25.2.3, SVG Export Plug-In . SVG Version: 6.00 Build 0)  -->
<svg version="1.1" id="Outline" xmlns="http://www.w3.org/2000/svg" xmlns:xlink="http://www.w3.org/1999/xlink" x="0px" y="0px"
	 viewBox="0 0 512 512" style="enable-background:new 0 0 512 512;" xml:space="preserve">
<style type="text/css">
	.st0{fill:#333333;}
</style>
<path class="st0" d="M21.3,169.3h58.4c11.5,42.4,55.2,67.4,97.6,55.9c27.2-7.4,48.5-28.7,55.9-55.9h257.5c11.8,0,21.3-9.6,21.3-21.3
	s-9.6-21.3-21.3-21.3H233.2c-11.5-42.4-55.2-67.4-97.6-55.9c-27.2,7.4-48.5,28.7-55.9,55.9H21.3C9.6,126.7,0,136.2,0,148
	S9.6,169.3,21.3,169.3z M156.4,110.7c20.6,0,37.3,16.7,37.3,37.3s-16.7,37.3-37.3,37.3s-37.3-16.7-37.3-37.3
	C119.1,127.4,135.8,110.7,156.4,110.7z"/>
<path class="st0" d="M490.7,342.7h-58.4c-11.5-42.4-55.2-67.4-97.6-55.9c-27.2,7.4-48.5,28.7-55.9,55.9H21.3
	C9.6,342.7,0,352.2,0,364c0,11.8,9.6,21.3,21.3,21.3h257.5c11.5,42.4,55.2,67.4,97.6,55.9c27.2-7.4,48.5-28.7,55.9-55.9h58.4
	c11.8,0,21.3-9.6,21.3-21.3C512,352.2,502.4,342.7,490.7,342.7z M355.6,401.3c-20.6,0-37.3-16.7-37.3-37.3
	c0-20.6,16.7-37.3,37.3-37.3c20.6,0,37.3,16.7,37.3,37.3C392.9,384.6,376.2,401.3,355.6,401.3z"/>
</svg>
