<?xml version="1.0" encoding="utf-8"?>
<!-- Generator: Adobe Illustrator 25.2.3, SVG Export Plug-In . SVG Version: 6.00 Build 0)  -->
<svg version="1.1" id="Layer_1" xmlns="http://www.w3.org/2000/svg" xmlns:xlink="http://www.w3.org/1999/xlink" x="0px" y="0px"
	 viewBox="0 0 139.4 42" style="enable-background:new 0 0 139.4 42;" xml:space="preserve">
<style type="text/css">
	.st0{fill:none;}
	.st1{fill:#5F0080;}
</style>
<g>
	<path class="st0" d="M0,0h82v42H0V0z"/>
	<path class="st1" d="M62.5,1c1-0.6,2.5-0.7,3.4,0.1s0.7,2,0,4c0,0-1.5,4.1-3.1,8.3l-0.4,1.1c-1.4,3.8-2.8,7.5-2.9,8
		c-1.5,4.2,2,4.1,4-0.2c1.2-2.4,2.6-6.4,2.6-6.4c0.5-1.6,0.7-2.5,0.4-2.8c-0.1-0.1,0-0.3,0.2-0.3c2.3-1.1,4.6-0.1,3.3,3.3L70,16.1
		c-0.4,1-2.7,6.7-2.7,6.7c-0.7,1.7-0.6,3.2,0.4,3.2c0.7,0,1.5-0.4,2.3-1.1c1.8-1.5,3.2-4.3,3.7-5.5c0.2-0.5,1.1-2.4,1.8-4.4
		c0.2-0.7,0.4-1.4,0.4-2.1c0-0.2,0-0.4,0.2-0.5c0.5-0.3,1.1-0.4,1.7-0.4c0.6,0,1.1,0.3,1.5,0.7c0.4,0.6,0.6,1.6,0.1,2.8
		c-0.1,0.3-3.8,10-3.8,10v0c2-1.2,3.9-1.3,5-0.9l0,0c1.5,0.6,2,2.4,0.9,3.6c-0.1,0.1-0.4,0.1-0.4-0.1c-0.1-1.3-2.5-3.5-6.1-1.1
		l-0.1,0.4l-1.1,2.8c-2.6,7-5.4,12.1-9.4,11c-2.7-0.8-2.4-4.6,0.5-7.8c2-2.1,4.2-4.1,6.5-5.9c0.1-0.2,0.1-0.4,0.2-0.5
		c0.3-0.8,0.5-1.4,0.8-2.3l0.2-0.5c-0.2,0.2-0.5,0.6-0.7,0.8c-0.7,0.8-2.5,2.8-5.3,2.2l-0.2-0.1c-2.1-0.5-2.6-2-2.7-3.3
		c-2.1,2.7-4.4,3.4-5.8,3.4c-1.9,0-3.4-1.5-2.4-4.3c1.1-3.1,5.5-15.3,6.8-19c0.5-1.6,0.7-2.6,0.2-3C62.2,1.2,62.4,1,62.5,1L62.5,1z
		 M70.9,29.7c-1.1,0.9-5.5,4.5-6.8,7.4c-0.5,1.2-0.4,2.1,0.5,2.2c2,0.2,4-3.8,6.2-9.5L70.9,29.7z M16,5.4c-0.1,0.3-1.3,3.9-2.7,7.7
		l-0.2,0.6l-0.2,0.6l-0.2,0.6c4.7-1.1,13.1-6.6,14-10.1c0.1-0.2,0.3-0.2,0.6,0c0.5,0.3,0.7,1.2,0.5,1.9c-0.8,3-6.4,7.3-11.4,9.6
		c0.6,1.6,2.7,6.3,4.2,9.1c1.7,3.1,3.4,4.6,6.1,4.7c1.5,0.1,3-0.4,3.9-1.2l0.1-0.1l0,0c0.2-0.2,0.5,0.1,0.4,0.3
		c-1.1,1.7-3,2.7-5,2.9c-6.3,0.4-8.8-3.9-13.3-14.5c-0.4,0.1-0.8,0.3-1.3,0.5c-0.1,0.2-2.1,5.6-2.1,5.8c-0.9,2.9-1,4.4-0.4,4.9
		c0.1,0.1,0.1,0.3-0.2,0.4c-2.5,0.8-4.9-0.7-3.6-4.4C6.5,21.3,11.1,8.4,12.3,5c0.4-1.3,0.2-2.1-0.5-2.3C8.5,1.8,0.9,8.7,2,15.2
		c0.2,1.1,1,1.7,1.4,1.7c0.1,0,0.1,0,0.2,0.1c0,0,0,0,0,0.1c-0.2,0.8-1.1,1.2-1.8,1c-1.2-0.3-1.6-1.5-1.6-2.2
		C-0.6,9.2,6.1,1.2,12.4,0.6C14.8,0.3,17,1.5,16,5.4L16,5.4z M40.1,15.3L40,15.5l-2.8,8.2c-0.3,0.9-0.1,1.7,0.5,1.9
		c1.8,0.5,4-2.1,5.1-4.7c0.5-1.3,1-2.5,1.5-3.8c0.6-1.6,1.1-3.2,0.8-3.9c-0.1-0.2,0-0.3,0.2-0.4c0.5-0.3,2.2-0.8,3.1,0.1
		c0.7,0.7,0.6,1.8,0,3.4l-0.1,0.2l0.2-0.3c2.7-3.3,4.8-4.3,6.6-3.6l0.1,0.1c2.4,1.1,1.1,5.2-2.1,5.5c-0.2,0-0.4-0.1-0.2-0.4
		c0.4-0.6,0.4-1.9-0.8-2s-2.8,1.2-4,2.8c-1.1,1.5-2.2,3.9-3.3,7.3c-0.3,0.8-0.1,1-0.1,1.1c0,0,0,0.1,0,0.1c-0.1,0.3-1,0.6-1.8,0.6
		c-1.6,0-2.3-0.9-2-2.4c-1.8,1.8-3.7,2.6-5.4,2.5c-1.4-0.1-2.4-1.3-2.3-2.7c0-0.1,0-0.2,0.1-0.4c-1.4,1.8-3.5,3.3-5.7,3.1
		c-2.2-0.2-3.5-1.7-2.8-4.8c0.6-2.6,1.6-5.3,2.2-7c0.5-1.5,0.6-2.4,0.3-2.8c-0.1-0.1,0.1-0.3,0.2-0.3c1.7-0.9,4.4-0.3,3.6,2.1
		c-0.8,2.5-2.3,6.5-2.5,7.4c-0.7,2.3-0.3,3.5,0.8,3.6c1,0.1,2.4-1,3.4-2.5c1.8-2.5,2.6-5.7,3.4-7.9c0.2-0.6,0.5-1.9,0.2-2.4
		c-0.1-0.1,0.1-0.3,0.3-0.4C38.2,11.8,41,12,40.1,15.3L40.1,15.3z"/>
</g>
<g>
	<path class="st1" d="M95.3,6.9c1.8,0,3.3,0.3,4.6,0.9s2.3,1.5,3,2.6c0.7,1.1,1,2.4,1,3.8s-0.3,2.7-1,3.8c-0.7,1.1-1.7,2-3,2.6
		c-1.3,0.6-2.8,0.9-4.6,0.9h-4.6v6.4h-2.7v-21H95.3z M99.5,17.8c1.1-0.8,1.6-2,1.6-3.5c0-1.5-0.5-2.7-1.6-3.5
		c-1.1-0.8-2.5-1.2-4.4-1.2h-4.4V19h4.4C97,19,98.5,18.6,99.5,17.8z"/>
	<path class="st1" d="M108.5,27.3c-1.1-0.7-2-1.6-2.6-2.8c-0.6-1.2-1-2.5-1-4c0-1.5,0.3-2.8,1-4c0.6-1.2,1.5-2.1,2.6-2.8
		c1.1-0.7,2.4-1,3.7-1c1.3,0,2.3,0.3,3.3,0.8c0.9,0.5,1.6,1.1,2,1.8v-2.2h2.7v15h-2.7v-2.2c-0.4,0.7-1.1,1.3-2,1.8
		c-0.9,0.5-2,0.8-3.3,0.8C110.8,28.3,109.6,28,108.5,27.3z M115.1,25.2c0.8-0.5,1.4-1.1,1.8-2c0.4-0.8,0.6-1.8,0.6-2.8
		s-0.2-2-0.6-2.8c-0.4-0.8-1-1.5-1.8-2c-0.8-0.5-1.6-0.7-2.6-0.7c-1,0-1.8,0.2-2.6,0.7c-0.8,0.5-1.3,1.1-1.8,2
		c-0.4,0.8-0.6,1.8-0.6,2.8s0.2,2,0.6,2.8c0.4,0.8,1,1.5,1.8,2s1.6,0.7,2.6,0.7C113.4,25.9,114.3,25.7,115.1,25.2z"/>
	<path class="st1" d="M137.3,12.9L128,34.3h-2.7l2.9-6.7l-6.4-14.7h2.9l4.8,11.8l4.9-11.8H137.3z"/>
</g>
</svg>
